<svg xmlns="http://www.w3.org/2000/svg" viewBox="0 0 236.81 248.44" id="boy-won-lottery-while-playing-wheel-of-fortune">
    <g style="isolation:isolate">
        <path fill="#97705f"
            d="M173.26 226.85s-.23 1.22-.58 2.71.29 2.54 2.27 3.52a4.78 4.78 0 005-.09 3.08 3.08 0 001.6-3.66c-.35-1.79-1-3.76-1-3.76l-6.86-.2zM209.38 226.79l.5 2.14A3.53 3.53 0 01207.7 233a4.31 4.31 0 01-4.71-.25 3.47 3.47 0 01-1.61-3.92 33.25 33.25 0 00.45-3.74h7z">
        </path>
        <path fill="#ffa884"
            d="M167.76,68.55a20.15,20.15,0,0,1-.68-4.25,2.81,2.81,0,0,1,.2-1.24c.21-.59.34-.51.85-.39.16-.49.32-1.2.83-1.38s.77.18,1.19.27c.16-.51.29-1.12.87-1.13.39,0,1.21.19,1.33.56.13-.55.51-1.12,1-1a1.37,1.37,0,0,1,.89.62c.2.33.22,3.12.37,3.36.15-.46.83-2.19,1.43-2.08s.43,1.41.28,1.92l-.95,3.47a3.89,3.89,0,0,1-.59,1.47,11.67,11.67,0,0,1-1.43,1.46s2,17.4,2.44,19c.27.92,2.45,5.46,4.29,9.22a25.49,25.49,0,0,1-5.91,4.42c-.11-.27-4.23-9.24-4.81-12.22a54.5,54.5,0,0,1-.57-6.71c-.21-5.44.1-12.6.14-13A8.5,8.5,0,0,1,167.76,68.55Z">
        </path>
        <path fill="#102042"
            d="M173.26 226.07s-.23 1.22-.58 2.71.29 2.54 2.27 3.52a4.78 4.78 0 005-.09 3.08 3.08 0 001.6-3.66c-.35-1.78-.54-6.22-.54-6.22h-6.5zM209.38 226.07l.5 2.14a3.53 3.53 0 01-2.18 4.09A4.29 4.29 0 01203 232a3.45 3.45 0 01-1.61-3.91 27.54 27.54 0 00-.1-5.69l7-.43z">
        </path>
        <path fill="#535866"
            d="M207.63 182.73l-.1-13c-1.48-.09-3.77 1.07-3.77 1.39-5.07 16.94-3 34.52-2.7 51.89l7.45-.38zM181.79 147.73a72 72 0 00-2.64 13.49c-.84 7.93-1.84 22.21-2.86 32.17-1.06 10.32-1.62 9.6-2.4 30l7.59.37 4.83-33.13c4.62-24.7 6.12-29.4 7.34-34.68C192.7 150.28 187.89 148.42 181.79 147.73z">
        </path>
        <path fill="#464b56"
            d="M203.86,172.23c0-.32,2.19-2.61,3.67-2.52l-.61-21H182.66l-.09.42c6.11.69,10.44,8.58,10.57,8.5.79-.48,5.71,35.51,5.71,35.51L201.06,223l1.28-.09C202.06,205.54,202.28,179.12,203.86,172.23Z">
        </path>
        <polygon fill="#e98e78"
            points="192.07 97.72 189.95 107.27 194.57 113.25 200.66 107.06 199.91 97.54 192.07 97.72"></polygon>
        <path fill="#102042"
            d="M208.34,96.79c-1.4,2.86-2.6,5.27-2.6,5.27L200.42,104s-.54,5-5.22,4.25c-4.07-.62-4.4-4.79-4.4-4.79l-6.26-1.33s-2.66-2.82-4.9-5.46c-2.09,1.85-3.83,4.12-5.94,6,3.21,4.16,7.22,8.84,8.2,11.55,1.68,4.63,3.36,15.75,1.2,23.39s-3.71,14.51-3.71,14.51h29.66s-.09-4.26,0-9c.13-6.48-.28-19.46.27-22.68.5-2.91.74-5.8,2.19-9.38,1.32-3.26,2.56-6.07,3.77-9.19A34.15,34.15,0,0,1,208.34,96.79Z">
        </path>
        <path fill="#464b56"
            d="M190,171.31s-5.14,20.4-6.11,20.68a34.94,34.94,0,0,1-4.25.48l4,1.6-2,27.54s4.9-28,4.9-29.14S190,171.31,190,171.31Z">
        </path>
        <path fill="#ffa884"
            d="M203.67,91.12a.79.79,0,0,0-1.14-.3V87.3c0-3.48-3.5-5.9-8.51-5.37a5.56,5.56,0,0,0-4.73,3.41,6.65,6.65,0,0,0-.78,4.15c0,.47.09,1.24.15,1.62a.73.73,0,0,0-1,.21c-.29.45,0,1.67.61,2.52a7.09,7.09,0,0,0,1.28,1.35c.45,1.56.84,3.82,1.43,4.79a9.3,9.3,0,0,0,3.51,3.22,4.83,4.83,0,0,0,3.33-.06,8.62,8.62,0,0,0,3.15-3.55c.17-.64.66-3.25,1.11-5,.18.05.91-.68,1.33-1.49A2.56,2.56,0,0,0,203.67,91.12Z">
        </path>
        <path fill="#4f5463"
            d="M203.28,82.49c-1.43-2.11-3.15-1.59-3.15-1.59a4.24,4.24,0,0,1-1.8-.92,6.82,6.82,0,0,0-2.88-1.6,13.51,13.51,0,0,0-2.11,0,8.42,8.42,0,0,0-2.36.25,1.29,1.29,0,0,1,1,.25c-.34,0-4.15.51-5.14,3.11-.07.19-.08.37-.16.56a2.77,2.77,0,0,1,.91,0c-.67.58-.34,3.57-.34,3.57s.55-.2.55.43c0,.16,0,.84.13,1.62a22.78,22.78,0,0,0,.7,3,12.27,12.27,0,0,0,.8,2.21c.37.52.62.52.62.52v-5.4c0-.83.22-2.8,1.31-3-.32.15-.31,1-.25,1.36.08.51.67,1,.71,1.41,0-.3,0-.6,0-.89a8.89,8.89,0,0,0,1.76,2.08c.07-.28-.09-.58-.08-.88a1.26,1.26,0,0,1,.31-1,2.68,2.68,0,0,1,1.6-1,16.56,16.56,0,0,0,2.56-.66,5.86,5.86,0,0,0,1.61-1.14A7.05,7.05,0,0,1,201.17,88c.09,1.93,0,3.88.1,5.81.83-.1,1-1.21,1.15-1.76a8.87,8.87,0,0,0,.34-2.07c.12-1.16.93-3.31.93-4.49A12.65,12.65,0,0,0,203.28,82.49Z">
        </path>
        <path fill="#102042"
            d="M208.33 96.79c-1.4 2.86-2.59 5.27-2.59 5.27L200.42 104h2.12l5.32-1.93 1.94-3.93C209.29 97.71 208.8 97.26 208.33 96.79zM185.21 137.56c2.16-7.64 2.79-17.42 1.11-22.06-1.17-3.25-6.57-7.93-11.28-14.15-.47.47-.95.93-1.45 1.36 2.43 3.22 5.19 6.63 6.08 9.08 1.68 4.63 3 16.87 2 24.76-1.15 9.32-2.28 15.52-2.28 15.52h4.21A46 46 0 01185.21 137.56z">
        </path>
        <path fill="#fff" d="M193.59,98.14s1.19,1.76,2.35,1.84,2.35-1.84,2.35-1.84Z"></path>
        <path fill="#4f5463"
            d="M191.26 93a2.49 2.49 0 011.65-.31 1.86 1.86 0 011.28.86 1.43 1.43 0 00-1.47-1.12A1.66 1.66 0 00191.26 93zM200.28 92.78a2.49 2.49 0 00-1.65-.31 1.86 1.86 0 00-1.28.86 1.41 1.41 0 011.46-1.12A1.69 1.69 0 01200.28 92.78z">
        </path>
        <path fill="#ffa884"
            d="M220.69,66.91a20.82,20.82,0,0,0,.68-4.25,3.14,3.14,0,0,0-.2-1.24c-.21-.59-.34-.51-.85-.4-.16-.48-.32-1.2-.83-1.37s-.77.18-1.19.27c-.16-.52-.29-1.13-.87-1.13-.4,0-1.21.19-1.34.56-.13-.55-.5-1.12-1-1a1.32,1.32,0,0,0-.89.62c-.21.33-.22,3.12-.37,3.36-.15-.46-.83-2.19-1.43-2.08s-.43,1.4-.29,1.92c.33,1.15.64,2.31,1,3.46a3.89,3.89,0,0,0,.59,1.47,10.44,10.44,0,0,0,1.43,1.46s-2,17.41-2.44,19c-.28.92-2.46,5.46-4.29,9.22a25,25,0,0,0,5.91,4.43c.11-.28,4.22-9.24,4.8-12.22a50.82,50.82,0,0,0,.57-6.72c.22-5.43-.09-12.59-.14-13A8.16,8.16,0,0,0,220.69,66.91Z">
        </path>
        <path fill="#4f5463"
            d="M197.05 90.37s-.14.74.09.74 1.12-.74 2.15-.51a3 3 0 011.33.51A2 2 0 00199 90 2.12 2.12 0 00197.05 90.37zM194.46 90.29s.13.74-.1.74-1.12-.74-2.15-.51a3.12 3.12 0 00-1.33.51A2 2 0 01192.52 90 2.12 2.12 0 01194.46 90.29zM199.88 100.36l-.44-3-2.89-.75 0 .4L199 98s-.17 3.5-.51 3.77-1.94.86-2 .57.4-.84.32-1.1-.76-.23-.76-.23-.68 0-.76.23.34.82.32 1.1-1.61-.3-2-.57S193.2 98 193.2 98l2.46-.93v-.4l-2.89.75-.43 3a4.28 4.28 0 00.62 2.36c.67.8 3.14 1.12 3.14 1.12s2.48-.32 3.14-1.12A4.23 4.23 0 00199.88 100.36z">
        </path>
        <path fill="#cfb400"
            d="M193.59,113.25s7.34,8.46,7,8.24a39.42,39.42,0,0,0-4.51-.51l2.58,6.53-3.06-.71.92,5.26-3.41-7.69,3,1.25-3-6.82,3.87.4-3.42-3Z">
        </path>
        <rect width="20.07" height="37.28" x="80.91" y="26.54" fill="#102042"></rect>
        <rect width="20.07" height="37.28" x="80.91" y="26.54" style="mix-blend-mode:multiply" fill="#102042"
            opacity=".5"></rect>
        <polygon fill="#102042" points="121.58 229.76 60.31 229.76 76.23 174 105.67 174 121.58 229.76"></polygon>
        <path
            d="M111.07,193h0L105.67,174H76.23L70.82,193h0l-8.49,29.74,28.62-.5,28.61.5Zm-6,1.51,6.59,23.64H95.28V195.74A70.66,70.66,0,0,0,105,194.46Zm-28.15,0a70.86,70.86,0,0,0,9.74,1.28V218.1H70.28Z"
            style="mix-blend-mode:multiply" fill="#fe2b24" opacity=".5"></path>
        <rect width="82.65" height="7.96" x="49.62" y="221.8" fill="#4c79e9"></rect>
        <rect width="6.36" height="62.62" x="87.77" y="160.53" fill="#4c79e9"></rect>
        <path d="M87.77,195.82a21.81,21.81,0,0,0,6.36,0V189.4a21.66,21.66,0,0,0-6.37-2Z" style="mix-blend-mode:multiply"
            fill="#4c79e9" opacity=".4"></path>
        <rect width="6.36" height="3.7" x="87.76" y="218.1" style="mix-blend-mode:multiply" fill="#4c79e9" opacity=".4">
        </rect>
        <path
            d="M53.87 221.8H49.62v8h4.5c-.83-1.15-2.07-3.41-1.34-5.8A9 9 0 0153.87 221.8zM129.09 224c.74 2.39-.51 4.65-1.33 5.8h4.51v-8H128A8.6 8.6 0 01129.09 224z"
            style="mix-blend-mode:multiply" fill="#4c79e9" opacity=".4"></path>
        <path fill="#fff7f0" d="M91,188a72.88,72.88,0,1,1,72.87-72.88A73,73,0,0,1,91,188Z"></path>
        <path fill="#4c79e9"
            d="M91,39.58a75.52,75.52,0,1,0,75.51,75.51A75.6,75.6,0,0,0,91,39.58Zm0,145.75a70.24,70.24,0,1,1,70.23-70.24A70.24,70.24,0,0,1,91,185.33Z">
        </path>
        <path fill="#102042" d="M91,115.09l16.81-62.74a65.07,65.07,0,0,0-33.63,0Z"></path>
        <path fill="#4c79e9" d="M91,115.09,74.13,52.35A65.09,65.09,0,0,0,45,69.16Z"></path>
        <path fill="#fff7f0" d="M91,115.09,45,69.16A65,65,0,0,0,28.2,98.28Z"></path>
        <path fill="#102042" d="M91,115.09,28.2,98.28a65.07,65.07,0,0,0,0,33.63Z"></path>
        <path fill="#4c79e9" d="M91,115.09,28.2,131.91A65.09,65.09,0,0,0,45,161Z"></path>
        <path fill="#fff7f0" d="M91,115.09,45,161a65.34,65.34,0,0,0,29.12,16.81Z"></path>
        <path fill="#102042" d="M91,115.09,74.13,177.84a65.07,65.07,0,0,0,33.63,0Z"></path>
        <path fill="#4c79e9" d="M91,115.09l16.81,62.75A65.34,65.34,0,0,0,136.88,161Z"></path>
        <path fill="#fff7f0" d="M91,115.09,136.88,161a65.09,65.09,0,0,0,16.81-29.12Z"></path>
        <path fill="#102042" d="M91,115.09l62.74,16.82a65.07,65.07,0,0,0,0-33.63Z"></path>
        <path fill="#4c79e9" d="M91,115.09l62.74-16.81a65,65,0,0,0-16.81-29.12Z"></path>
        <path fill="#fff7f0" d="M91,115.09l45.93-45.93a65.09,65.09,0,0,0-29.12-16.81Z"></path>
        <path fill="#fff7f0" d="M91,144.24a29.15,29.15,0,1,1,29.15-29.15A29.17,29.17,0,0,1,91,144.24Z"></path>
        <path fill="#4c79e9"
            d="M91,83.3a31.79,31.79,0,1,0,31.79,31.79A31.82,31.82,0,0,0,91,83.3Zm0,58.3a26.51,26.51,0,1,1,26.5-26.51A26.51,26.51,0,0,1,91,141.6Z">
        </path>
        <polygon fill="#102042" points="90.95 85.08 84.06 113.67 97.83 113.67 90.95 85.08"></polygon>
        <polygon fill="#102042" points="90.95 91.91 84.81 117.41 97.09 117.41 90.95 91.91"></polygon>
        <circle cx="90.95" cy="115.09" r="10.03" fill="#4c79e9"></circle>
        <circle cx="90.95" cy="115.09" r="5.13" fill="#102042"></circle>
        <path fill="#4c79e9" d="M119.91,40.75a98.45,98.45,0,0,0-57.93,0V19.05a98.45,98.45,0,0,1,57.93,0Z"></path>
        <path fill="#20deef"
            d="M67.45 17.56c-1.83.45-3.66.93-5.47 1.49v21.7c1.81-.56 3.64-1 5.47-1.49zM114.44 39.26c1.83.45 3.66.93 5.47 1.49V19.05c-1.81-.56-3.64-1-5.47-1.49z">
        </path>
        <path fill="#fff7f0"
            d="M72.35 20.57l2.22-.5c-.09 3.7-.17 7.39-.25 11.09 1.24-.26 2.48-.49 3.72-.7l0 1.85c-2 .33-4 .73-6 1.21zM81.35 18.94c0 3.32-.09 6.64-.14 10 0 .92.44 1.2 1.16 1.11a1.21 1.21 0 001.2-1.37c0-3.32.07-6.64.11-10 .7-.07 1.41-.13 2.12-.18 0 3.28 0 6.55-.07 9.83 0 2.07-1.19 3.31-3.44 3.55s-3.38-.72-3.35-2.79c.06-3.28.11-6.56.17-9.84C79.85 19.13 80.6 19 81.35 18.94zM93.91 26.42v1.72c0 2.06-1.15 3.19-3.41 3.22s-3.42-1.07-3.4-3.13l0-6.72a3.1 3.1 0 013.39-3.36 3 3 0 013.37 3.27c0 .42 0 .84 0 1.26-.72 0-1.43 0-2.15 0V21.26c0-.92-.45-1.27-1.17-1.26s-1.18.37-1.18 1.29c0 2.33 0 4.65 0 7 0 .92.46 1.24 1.18 1.23s1.19-.34 1.19-1.26V26.39Q92.83 26.39 93.91 26.42zM98.27 26.33l-.69 1.12 0 4c-.76-.06-1.53-.1-2.29-.14l-.06-12.9c.75 0 1.5.07 2.25.13 0 1.87 0 3.75 0 5.62q1.47-2.7 2.9-5.36c.75.08 1.5.17 2.25.28l-3.06 5.39c1.07 2.49 2.16 5 3.25 7.53-.78-.11-1.56-.21-2.35-.29zM106 28.17q-1.52-4.56-3-9.08 1.17.15 2.34.36.9 3.09 1.82 6.19.8-2.78 1.58-5.55c.71.15 1.41.31 2.12.48q-1.29 4-2.62 8c0 1.43.06 2.86.1 4.29-.76-.16-1.51-.3-2.27-.43C106 31 106 29.6 106 28.17z">
        </path>
        <path d="M91,44.86A70,70,0,0,0,38.23,68.71a70.22,70.22,0,0,1,99.1,99.1A70.22,70.22,0,0,0,91,44.86Z"
            style="mix-blend-mode:multiply" fill="#102042" opacity=".3"></path>
        <path fill="#4c79e9" d="M95.74,64.94A4.75,4.75,0,1,1,91,60.19,4.74,4.74,0,0,1,95.74,64.94Z"></path>
        <path fill="#f7d300" d="M120.18,74.05a4.74,4.74,0,1,1-1.74-6.48A4.76,4.76,0,0,1,120.18,74.05Z"></path>
        <path fill="#fff7f0" d="M136.78,94.16a4.74,4.74,0,1,1,1.74-6.48A4.73,4.73,0,0,1,136.78,94.16Z"></path>
        <path fill="#4c79e9" d="M141.1,119.89a4.75,4.75,0,1,1,4.75-4.75A4.75,4.75,0,0,1,141.1,119.89Z"></path>
        <path fill="#f7d300" d="M132,144.32a4.74,4.74,0,1,1,6.48-1.73A4.74,4.74,0,0,1,132,144.32Z"></path>
        <path fill="#fff7f0" d="M111.87,160.93a4.75,4.75,0,1,1,6.49,1.73A4.76,4.76,0,0,1,111.87,160.93Z"></path>
        <path fill="#4c79e9" d="M86.15,165.25A4.75,4.75,0,1,1,90.9,170,4.75,4.75,0,0,1,86.15,165.25Z"></path>
        <path fill="#f7d300" d="M61.72,156.13a4.75,4.75,0,1,1,1.73,6.49A4.74,4.74,0,0,1,61.72,156.13Z"></path>
        <path fill="#fff7f0" d="M45.11,136a4.75,4.75,0,1,1-1.73,6.48A4.76,4.76,0,0,1,45.11,136Z"></path>
        <path fill="#4c79e9" d="M40.79,110.3A4.75,4.75,0,1,1,36,115,4.75,4.75,0,0,1,40.79,110.3Z"></path>
        <path fill="#f7d300" d="M49.91,85.86a4.75,4.75,0,1,1-6.49,1.74A4.75,4.75,0,0,1,49.91,85.86Z"></path>
        <path fill="#fff7f0" d="M70,69.26a4.74,4.74,0,1,1-6.48-1.74A4.74,4.74,0,0,1,70,69.26Z"></path>
    </g>
</svg>